<?xml version="1.0" encoding="UTF-8"?><svg id="a" xmlns="http://www.w3.org/2000/svg" viewBox="0 0 850.39 850.39"><circle cx="425.2" cy="425.2" r="425.2" style="fill:#c9c3c9;"/><path d="M812.28,600.43c-34.26-95.83-34.26-200.52,0-296.35l18.28-7.57c-3.23-10.18-6.83-20.2-10.79-30.03l-19.69,8.16c-91.99-43.54-166.01-117.56-209.55-209.55l11.12-26.84c-9.64-4.4-19.47-8.46-29.47-12.14l-11.1,26.79c-95.83,34.26-200.52,34.26-296.35,0l-7.6-18.36c-9.8,4.22-19.41,8.8-28.82,13.72l6.97,16.83c-43.21,91.28-116.45,164.87-207.46,208.53-4.58,12-8.63,24.26-12.12,36.75,28.24,82.91,31.03,172.1,8.38,256.25,10.48,29.73,24.18,57.95,40.67,84.23,58.17,35.08,107.39,83.12,143.84,140.32,33.47,19.85,69.9,35.24,108.47,45.35,67.3-15.02,137.24-14.02,204.18,2.99,29.44-6.8,57.71-16.66,84.46-29.22,44.05-77.54,110.74-140.06,191.49-179,5.55-9.99,10.71-20.23,15.45-30.7l-.37-.15ZM574.5,103.78c43.22,78.82,108.05,143.65,186.88,186.88l-72.8,30.15c-57.19-38.58-105.65-87.04-144.23-144.23l30.15-72.8ZM665.87,539.78l-67.75-28.06c-3.77-39.51-3.77-79.42,0-118.93l67.75-28.06c-9.14,58.2-9.14,116.86,0,175.06ZM159.94,364.72l67.75,28.06c3.77,39.51,3.77,79.42,0,118.93l-67.75,28.06c9.14-58.2,9.14-116.86,0-175.06ZM564.96,497.98l-110.41-45.73,110.41-45.74c-2.12,30.43-2.12,61.03,0,91.47ZM552.77,377.07l-110.41,45.74,45.73-110.42c20.02,23.02,41.66,44.66,64.68,64.68ZM501.82,279.24l28.06-67.75c34.7,47.62,76.17,89.09,123.79,123.79l-67.75,28.06c-30.61-25.27-58.83-53.5-84.1-84.1ZM367.14,300.12c15.25,1.05,30.56,1.6,45.76,1.6s30.51-.55,45.76-1.6l-45.76,110.49-45.76-110.49ZM458.67,604.38c-15.25-1.05-30.56-1.6-45.76-1.6s-30.51.55-45.76,1.6l45.76-110.49,45.76,110.49ZM472.39,266.99c-19.75,1.86-39.72,2.86-59.49,2.86s-39.73-1-59.49-2.86l-28.04-67.7c57.76,8.97,117.31,8.97,175.06,0l-28.04,67.7ZM337.72,312.39l45.73,110.42-110.41-45.74c23.02-20.02,44.66-41.66,64.68-64.68ZM260.84,406.52l110.41,45.73-110.41,45.74c2.12-30.43,2.12-61.03,0-91.47ZM239.89,363.34l-67.75-28.06c47.62-34.7,89.09-76.17,123.79-123.79l28.06,67.75c-25.27,30.6-53.49,58.83-84.1,84.1ZM239.89,541.17c30.61,25.28,58.83,53.5,84.1,84.1l-28.06,67.75c-34.7-47.62-76.17-89.09-123.79-123.79l67.75-28.06ZM273.04,527.43l110.42-45.73-45.74,110.41c-20.02-23.01-41.66-44.65-64.68-64.68ZM353.41,637.52c19.76-1.86,39.72-2.86,59.49-2.86s39.74,1,59.49,2.86l28.04,67.69c-28.88-4.49-58.2-6.8-87.53-6.8s-58.65,2.31-87.53,6.8l28.04-67.69ZM488.08,592.12l-45.73-110.42,110.41,45.74c-23.02,20.03-44.66,41.66-64.68,64.68ZM585.92,541.17l67.75,28.06c-47.62,34.7-89.09,76.17-123.79,123.79l-28.06-67.75c25.27-30.6,53.49-58.82,84.1-84.1ZM545.05,91.59l-30.17,72.82c-66.9,12.95-137.06,12.95-203.96,0l-30.17-72.83c86.3,25.17,177.99,25.17,264.29,0ZM251.31,103.78l30.15,72.8c-38.58,57.19-87.04,105.65-144.23,144.23l-72.8-30.15c78.82-43.23,143.65-108.05,186.88-186.88ZM52.24,320.11l72.8,30.15c13.16,67.72,13.16,136.25,0,203.98l-72.8,30.15c25.17-86.3,25.17-177.98,0-264.28ZM64.43,613.84l72.8-30.15c57.19,38.58,105.65,87.04,144.23,144.23l-30.15,72.8c-43.23-78.82-108.06-143.65-186.88-186.88ZM412.9,794.03c-44.5,0-88.99,6.3-132.14,18.89l30.17-72.83c66.89-12.95,137.06-12.95,203.96,0l30.17,72.83c-43.15-12.58-87.65-18.89-132.14-18.89ZM574.49,800.72l-30.15-72.8c38.58-57.19,87.04-105.65,144.23-144.23l72.8,30.15c-78.82,43.23-143.65,108.05-186.88,186.88ZM773.57,584.39l-72.8-30.15c-13.16-67.72-13.16-136.25,0-203.98l72.8-30.15c-25.17,86.3-25.17,177.98,0,264.28Z" style="fill:#fff;"/><path d="M259.12,108.02c6.09-4.3,12.72-8.56,20.34-9.24,5.48.35,9.97,4.06,13.62,7.85,8.02,8.84,14.72,18.76,21.11,28.81,16.74-8.75,34.63-15.15,52.96-19.63,14.5-3.25,29.26-5.33,44.08-6.49,20.3-1.21,40.61,1.55,60.51,5.4,25.77,5.16,50.68,14.69,73.31,28.04,8.64-10.79,18.45-21.09,30.83-27.62,2.37-1.15,5.02-2.92,7.73-1.73,30.88,11.54,56.65,36.04,69.47,66.44,3.11,7.61,5.86,15.73,5.17,24.08-.83,5.51-5.46,9.32-9.56,12.58-5.18,4.21-11.14,7.26-16.71,10.9,5.78,8.58,10.29,17.94,14.64,27.31,1.47,2.99,2.13,6.48,4.34,9.05,2.03.9,4.2-.44,6.15-1.04,5.78-2.51,11.93-3.96,18.04-5.42,4.16-.86,8.69-1.68,12.74.09,5.4,2.37,9.8,6.61,13.03,11.49,6.44,9.65,10.68,20.75,12.62,32.16,1.1,12.55.83,25.33-1.94,37.66-2.06,9.61-3.8,19.54-8.56,28.26-1.87,3.56-5.25,6.31-9.25,7.03-8.71,1.55-17.61.7-26.36-.02-2.35,14.99-5.2,29.9-8.94,44.6,11.61,2.26,23.64,3.42,34.51,8.41,4.91,2.23,8.62,7.4,7.94,12.95-.81,8.07-4.14,15.6-7.05,23.09-6.48,16.5-15.65,31.91-26.89,45.61-4.83,5.69-9.9,11.44-16.43,15.24-4.22,2.53-9.62,2.36-14.03.41-8.58-3.7-16.26-9.22-23.04-15.58-2.87,1.54-4.96,4.5-6.81,7.15-1.02,1.15.76,2.33,1.31,3.29,8.05,8.64,16.98,16.8,22.85,27.18,3.47,5.56-.82,11.64-3.98,16.21-11.46,14.66-27.73,24.83-44.75,31.88-7.07,2.9-14.66,6.04-22.46,4.63-7.3-1.7-13.74-6.41-17.93-12.57-3.34-4.72-5.76-9.98-8.69-14.93-23.51,12.75-49.5,20.86-75.99,24.39-18.47,2.82-37.3,3.61-55.87,1.27-13.7-1.81-27.41-3.89-40.82-7.27-5.95,7.43-9.93,16.63-17.73,22.43-6.59,4.71-15,1.89-22.11.13-16.16-4.33-32.05-9.91-47.03-17.42-7.87-4.32-15.42-9.53-21.41-16.28-3.38-3.75-5.59-9.27-3.14-14.1,4.04-8.78,9.23-17.03,14.88-24.85-4.91-5.45-10.66-10.06-15.63-15.45-2.95-2.79-5.21-6.3-8.49-8.73-8.86,3.79-17.73,9.16-27.68,8.83-3.71.08-6.83-2.22-9.75-4.22-19.2-14.41-33.79-34.61-42.01-57.12-2.79-8.16-6.61-16.39-6.17-25.21-.07-3.46,2.81-5.87,5.29-7.82,8.37-6.17,18.15-9.96,27.35-14.67-4.98-16.61-6.45-34-7.78-51.22-.54-9.82-.08-19.66-.2-29.49-11.72-.75-22.98-4.74-33.35-10.07-4.89-2.63-9.7-6.38-11.62-11.76-1.53-5.92-.7-12.1-.27-18.09,2.24-19.56,8.02-38.57,15.74-56.62,2.56-6.1,6.46-12.36,13.06-14.6,3.64-.89,7.43-.08,11.06.53,12.46,2.41,24.83,5.6,36.58,10.43,2.2-2.4,3.49-5.44,5.16-8.2,5.39-9.22,11.78-17.8,18.01-26.46-8.87-7.12-15.67-16.37-21.69-25.92-3.36-5.24-2.01-11.84.79-16.99,5.86-11.24,14.98-20.31,23.9-29.14,7.23-7.1,14.84-13.85,23.01-19.86ZM275.28,114.91c-18.34,12.98-35.15,28.44-48.49,46.58-1.05,1.72-3.3,3.82-1.64,5.89,7.65,12.37,17.27,24.38,30.68,30.77-3.65,4.36-7.36,8.67-10.88,13.14-10.7,12.88-18.88,27.53-27.94,41.54-11.97-3.94-23.65-8.85-35.94-11.78-4.87-1.05-9.58-3.23-14.62-3.26-6.96,13.05-12.11,27.13-14.79,41.69-1.84,9.81-4.37,19.61-4.02,29.66,14.25,9.18,31.73,9.85,47.98,12.58-.82,17.61-.96,35.3.09,52.9.97,17.34,6.21,34,10.29,50.76-12.7,4.33-24.97,9.84-36.94,15.91,2.21,7.59,5.13,14.96,8.14,22.27,6.92,17.11,18.03,32.66,32.58,44.11,1.66,1.07,3.52,3.1,5.67,2.06,8.21-3.32,16.6-6.22,24.58-10.1,2.16-.84,4.85-2.69,6.64-.23,11.6,11.19,22.04,23.69,34.94,33.47,1,.95,2.45,1.71,2.87,3.12-1.23,2.41-2.94,4.53-4.5,6.73-5.37,7.36-9.67,15.43-14.88,22.91-.62,1.21-1.79,2.38-1.63,3.84,3.15,3.71,7.43,6.23,11.4,8.97,15.33,9.68,32.58,15.85,50,20.53,2.41.6,4.88,1.39,7.42,1.16,2.24-1.5,3.82-3.75,5.39-5.9,5.05-7.27,9.31-15.05,14.34-22.32,10.12,2.69,20.27,5.23,30.58,7.08,16.19,2.85,32.66,5.36,49.14,3.97,9.73-.74,19.39-2.15,29.03-3.66,27.93-4.51,54.65-14.93,79.22-28.81,4.26,6.3,6.57,13.63,10.15,20.31,2.49,4.69,5.04,9.88,9.76,12.72,6.19,1.8,12.53-.94,18.15-3.41,13.05-6.21,25.67-14.02,35.24-25,1.1-1.36,2.3-2.81,2.46-4.62-2-3.11-4.68-5.69-7.11-8.45-4.84-5.06-9.12-10.63-14.21-15.45-2.99-3.15-6.42-5.93-8.94-9.46-1.16-1.17-.01-2.35.77-3.28,8.03-8.83,15.9-17.81,23.31-27.17,11.55,8.22,22.86,16.9,35.4,23.57,8.9-8.02,15.98-17.76,22.22-27.92,8.1-13.12,14.74-27.24,18.8-42.15-15.18-3.76-30.59-6.47-45.89-9.72,1.54-7.96,4.32-15.61,5.77-23.59,3.02-15.73,5.81-31.6,6.6-47.63,12.85.87,25.83,1.55,38.64-.15,5.32-15.88,8.11-32.66,7.86-49.42-.45-13.61-4.93-27.61-14.59-37.51-1.86-2.36-5-1.34-7.44-.76-11.92,3.28-23.44,7.92-35.39,11.08-2.44-4.93-4.41-10.07-6.55-15.14-6.31-15.12-14.28-29.51-23.48-43.07,8.37-5.06,16.14-10.98,24.06-16.71,2.63-2.33,6.04-4.46,7.32-7.83-1.73-12.35-8.13-23.45-14.9-33.72-10.2-15.01-25-26.22-40.79-34.8-2.31-1.08-5.23-2.88-7.64-1.07-12.45,8.5-21.66,20.67-32.36,31.11-15.65-9.22-31.66-18.03-48.93-23.86-21.47-7.8-44.25-11.18-66.95-12.63-37.89-1.77-75.75,7.59-109.65,24.27-4.7,2.29-9.18,5.05-14.1,6.86-6.06-14.48-15.39-27.36-25.89-38.93-1.62-1.74-4.08-4.29-6.43-2.06Z" style="fill:#543433;"/><path d="M354.44,365.62c13.04-5.91,28.34-7.59,42.01-2.91,10.18,3.76,19.81,10.08,25.85,19.27.97,1.4,2.02,2.78,3.29,3.96,4.69-4.22,8.68-9.31,14.28-12.42,9.74-6,21.52-7.19,32.68-6.11,18.93,2.31,36.38,12.58,48.65,27.01,9.28,11.25,15.95,24.66,19.49,38.8,3.3,16.37,2.69,33.92-3.83,49.46-6.61,16.22-19.38,30.23-35.83,36.74-5.46,2.17-11.41,2.3-17.21,2.21-14.93-.05-29.79-6.2-40.21-16.91-9.51-9.13-15.97-20.77-21.93-32.39-1.85,3.13-3.54,6.34-5.23,9.56-3.79,7.11-9.2,13.19-14.93,18.79-6.76,6.68-15.31,11.28-24.1,14.68-5.47,2.16-11.41,2.31-17.21,2.3-16,.54-31.51-7.59-41.58-19.78-8.58-10.48-14.4-23.25-16.45-36.67-2.86-17.52-1.17-36.11,6.5-52.25,8.87-19.68,26-35.01,45.74-43.35ZM342.28,389.31c-16.37,13.1-26.43,33.76-26.82,54.69-.38,13.7,3.82,27.32,10.95,38.96,4.75,7.82,11.99,14.14,20.65,17.24,12.39,5.1,27.03,2.68,38-4.71,9.62-6.72,16.53-16.38,22.96-26.01-5.15,2.7-10.19,6.12-16.13,6.67-8.28.97-16.38-2.31-23.08-6.93-9.43-6.29-16.31-16.8-17.12-28.23-.76-9.56-.12-19.73,4.84-28.19,4.32-8.33,11.65-15.26,20.68-18.14,8.77-2.85,18.59-1.64,26.69,2.6,5.91,3.09,10.4,8.1,15.56,12.19-3.03-8.29-6.54-16.63-12.57-23.22-7.31-8.14-18.56-12.3-29.41-11.56-12.83,1.3-25.3,6.31-35.2,14.64ZM451.63,383.28c-8.33,3.27-15.25,9.92-19.1,17.96-.68,4.18.44,8.45.39,12.67,4.85-4.58,9.8-9.28,16.02-11.94,11.8-5.43,26.59-2.45,36,6.31,5.86,5.64,9.78,13.17,11.76,21.02,1.87,9.79,1.83,20.56-3.08,29.52-5.04,10.02-14.4,17.55-24.98,21.06-10.16,2.2-21.76.96-29.8-6.13-1.27-.93-2-2.69-3.66-2.92,4.67,5.2,7.74,11.57,12.11,17.01,6.71,9.46,16.88,16.51,28.28,18.9,9.6,1.86,20.14.82,28.41-4.72,14.48-8.97,22.22-25.77,24.02-42.25,3.82-29.72-12.92-61.16-40.37-73.64-11.07-5.12-24.39-7.71-36.01-2.85Z" style="fill:#543433;"/><path d="M275.28,114.91c2.35-2.23,4.8.33,6.43,2.06,10.5,11.57,19.83,24.45,25.89,38.93,4.92-1.81,9.4-4.57,14.1-6.86,33.9-16.67,71.77-26.03,109.65-24.27,22.7,1.45,45.49,4.83,66.95,12.63,17.27,5.82,33.28,14.64,48.93,23.86,10.7-10.44,19.9-22.61,32.36-31.11,2.41-1.81,5.33-.01,7.64,1.07,15.79,8.58,30.59,19.79,40.79,34.8,6.76,10.27,13.17,21.36,14.9,33.72-1.28,3.36-4.69,5.5-7.32,7.83-7.92,5.72-15.69,11.65-24.06,16.71,9.2,13.56,17.16,27.94,23.48,43.07,2.14,5.07,4.11,10.21,6.55,15.14,11.95-3.16,23.47-7.8,35.39-11.08,2.44-.58,5.58-1.6,7.44.76,9.66,9.9,14.14,23.9,14.59,37.51.26,16.76-2.53,33.54-7.86,49.42-12.81,1.71-25.79,1.02-38.64.15-.79,16.03-3.58,31.9-6.6,47.63-1.45,7.98-4.23,15.63-5.77,23.59,15.3,3.25,30.7,5.96,45.89,9.72-4.06,14.91-10.7,29.03-18.8,42.15-6.24,10.17-13.32,19.9-22.22,27.92-12.55-6.67-23.86-15.35-35.4-23.57-7.41,9.36-15.27,18.34-23.31,27.17-.78.93-1.93,2.1-.77,3.28,2.52,3.54,5.95,6.31,8.94,9.46,5.09,4.82,9.37,10.39,14.21,15.45,2.43,2.76,5.11,5.34,7.11,8.45-.16,1.81-1.36,3.26-2.46,4.62-9.57,10.98-22.19,18.79-35.24,25-5.62,2.47-11.95,5.21-18.15,3.41-4.72-2.84-7.26-8.03-9.76-12.72-3.58-6.68-5.89-14.01-10.15-20.31-24.57,13.89-51.29,24.31-79.22,28.81-9.63,1.51-19.3,2.92-29.03,3.66-16.48,1.39-32.95-1.12-49.14-3.97-10.31-1.85-20.47-4.39-30.58-7.08-5.04,7.27-9.3,15.05-14.34,22.32-1.57,2.15-3.16,4.39-5.39,5.9-2.53.22-5.01-.56-7.42-1.16-17.42-4.68-34.68-10.85-50-20.53-3.97-2.74-8.26-5.26-11.4-8.97-.15-1.46,1.01-2.64,1.63-3.84,5.21-7.48,9.5-15.55,14.88-22.91,1.55-2.21,3.27-4.32,4.5-6.73-.42-1.41-1.87-2.17-2.87-3.12-12.9-9.78-23.35-22.28-34.94-33.47-1.79-2.45-4.49-.6-6.64.23-7.98,3.88-16.37,6.78-24.58,10.1-2.15,1.03-4.02-.99-5.67-2.06-14.55-11.44-25.67-26.99-32.58-44.11-3.01-7.32-5.94-14.68-8.14-22.27,11.96-6.07,24.24-11.58,36.94-15.91-4.08-16.76-9.32-33.42-10.29-50.76-1.05-17.6-.91-35.29-.09-52.9-16.25-2.73-33.73-3.4-47.98-12.58-.36-10.05,2.18-19.85,4.02-29.66,2.69-14.56,7.84-28.64,14.79-41.69,5.04.03,9.75,2.21,14.62,3.26,12.29,2.93,23.97,7.84,35.94,11.78,9.06-14.02,17.25-28.66,27.94-41.54,3.52-4.46,7.23-8.78,10.88-13.14-13.42-6.4-23.03-18.4-30.68-30.77-1.66-2.06.59-4.17,1.64-5.89,13.34-18.14,30.15-33.6,48.49-46.58ZM354.44,365.62c-19.74,8.34-36.87,23.67-45.74,43.35-7.67,16.14-9.36,34.73-6.5,52.25,2.05,13.42,7.87,26.19,16.45,36.67,10.07,12.19,25.58,20.32,41.58,19.78,5.79.01,11.74-.14,17.21-2.3,8.8-3.4,17.34-8,24.1-14.68,5.73-5.6,11.14-11.68,14.93-18.79,1.7-3.22,3.38-6.44,5.23-9.56,5.96,11.62,12.41,23.25,21.93,32.39,10.42,10.71,25.29,16.86,40.21,16.91,5.79.09,11.75-.04,17.21-2.21,16.45-6.51,29.22-20.52,35.83-36.74,6.52-15.54,7.13-33.09,3.83-49.46-3.55-14.14-10.22-27.56-19.49-38.8-12.27-14.44-29.72-24.71-48.65-27.01-11.17-1.08-22.95.11-32.68,6.11-5.6,3.12-9.59,8.2-14.28,12.42-1.27-1.19-2.32-2.56-3.29-3.96-6.04-9.19-15.67-15.51-25.85-19.27-13.67-4.68-28.98-2.99-42.01,2.91Z" style="fill:#7c6364;"/><path d="M342.28,389.31c-16.37,13.1-26.43,33.76-26.82,54.69-.38,13.7,3.82,27.32,10.95,38.96,4.75,7.82,11.99,14.14,20.65,17.24,12.39,5.1,27.03,2.68,38-4.71,9.62-6.72,16.53-16.38,22.96-26.01-5.15,2.7-10.19,6.12-16.13,6.67-8.28.97-16.38-2.31-23.08-6.93-9.43-6.29-16.31-16.8-17.12-28.23-.76-9.56-.12-19.73,4.84-28.19,4.32-8.33,11.65-15.26,20.68-18.14,8.77-2.85,18.59-1.64,26.69,2.6,5.91,3.09,10.4,8.1,15.56,12.19-3.03-8.29-6.54-16.63-12.57-23.22-7.31-8.14-18.56-12.3-29.41-11.56-12.83,1.3-25.3,6.31-35.2,14.64Z" style="fill:#fff;"/><path d="M451.63,383.28c-8.33,3.27-15.25,9.92-19.1,17.96-.68,4.18.44,8.45.39,12.67,4.85-4.58,9.8-9.28,16.02-11.94,11.8-5.43,26.59-2.45,36,6.31,5.86,5.64,9.78,13.17,11.76,21.02,1.87,9.79,1.83,20.56-3.08,29.52-5.04,10.02-14.4,17.55-24.98,21.06-10.16,2.2-21.76.96-29.8-6.13-1.27-.93-2-2.69-3.66-2.92,4.67,5.2,7.74,11.57,12.11,17.01,6.71,9.46,16.88,16.51,28.28,18.9,9.6,1.86,20.14.82,28.41-4.72,14.48-8.97,22.22-25.77,24.02-42.25,3.82-29.72-12.92-61.16-40.37-73.64-11.07-5.12-24.39-7.71-36.01-2.85Z" style="fill:#fff;"/></svg>